# Blender 3.5.0
# www.blender.org
mtllib placeholder_room.mtl
o Plane
v -5.421664 0.000000 3.115282
v 5.421664 0.000000 3.115282
v -5.421664 0.000000 -3.115282
v 5.421664 0.000000 -3.115282
v -5.421664 3.668631 3.115282
v 5.421664 3.668631 3.115282
v -5.421664 3.668631 -3.115282
v 5.421664 3.668631 -3.115282
v 3.026053 3.668631 -3.115282
v 3.026053 0.000000 -3.115282
v 3.026053 3.668631 3.115282
v 3.026053 0.000000 3.115282
v 0.630442 0.000000 3.115282
v -0.630442 0.000000 3.115282
v -0.630442 0.000000 -3.115282
v 0.630442 0.000000 -3.115282
v 0.630442 3.668631 3.115282
v -0.630442 3.668631 3.115282
v -0.630442 3.668631 -3.115282
v 0.630442 3.668631 -3.115282
v -3.026053 0.000000 3.115282
v -3.026053 0.000000 -3.115282
v -3.026053 3.668631 3.115282
v -3.026053 3.668631 -3.115282
v -5.421664 0.000000 0.000000
v 5.421664 0.000000 0.000000
v 3.026053 3.668631 0.000000
v -5.421664 3.668631 0.000000
v 5.421664 3.668631 0.000000
v 3.026053 0.000000 0.000000
v 0.630442 3.668631 0.000000
v -0.630442 3.668631 0.000000
v 0.630442 0.000000 0.000000
v -0.630442 0.000000 0.000000
v -3.026053 0.000000 0.000000
v -3.026053 3.668631 0.000000
v 3.026053 1.834315 3.115282
v 5.421664 1.834315 -3.115282
v 5.421664 1.834315 3.115282
v -5.421664 1.834315 3.115282
v -5.421664 1.834315 -3.115282
v 3.026053 1.834315 -3.115282
v 0.630442 2.099018 -3.115282
v -0.630442 2.099018 -3.115282
v -0.630442 1.834315 3.115282
v 0.630442 1.834315 3.115282
v -3.026053 1.834315 -3.115282
v -3.026053 1.834315 3.115282
v -5.421664 1.834315 0.000000
v 5.421664 1.834315 0.000000
v -5.421664 0.000000 -5.992780
v 5.421664 0.000000 -5.992780
v -5.421664 0.000000 -12.223343
v 5.421664 0.000000 -12.223343
v -5.421664 3.668631 -5.992780
v 5.421664 3.668631 -5.992780
v -5.421664 3.668631 -12.223343
v 5.421664 3.668631 -12.223343
v 3.026053 3.668631 -12.223343
v 3.026053 0.000000 -12.223343
v 3.026053 3.668631 -5.992780
v 3.026053 0.000000 -5.992780
v 0.630442 0.000000 -5.992780
v -0.630442 0.000000 -5.992780
v -0.630442 0.000000 -12.223343
v 0.630442 0.000000 -12.223343
v 0.630442 3.668631 -5.992780
v -0.630442 3.668631 -5.992780
v -0.630442 3.668631 -12.223343
v 0.630442 3.668631 -12.223343
v -3.026053 0.000000 -5.992780
v -3.026053 0.000000 -12.223343
v -3.026053 3.668631 -5.992780
v -3.026053 3.668631 -12.223343
v -5.421664 0.000000 -9.108062
v 5.421664 0.000000 -9.108062
v 3.026053 3.668631 -9.108062
v -5.421664 3.668631 -9.108062
v 5.421664 3.668631 -9.108062
v 3.026053 0.000000 -9.108062
v 0.630442 3.668631 -9.108062
v -0.630442 3.668631 -9.108062
v 0.630442 0.000000 -9.108062
v -0.630442 0.000000 -9.108062
v -3.026053 0.000000 -9.108062
v -3.026053 3.668631 -9.108062
v 3.026053 1.834315 -5.992780
v 5.421664 1.834315 -12.223343
v 5.421664 1.834315 -5.992780
v -5.421664 1.834315 -5.992780
v -5.421664 1.834315 -12.223343
v 3.026053 1.834315 -12.223343
v 0.630442 1.834315 -12.223343
v -0.630442 1.834315 -12.223343
v -0.630442 2.099018 -5.992780
v 0.630442 2.099018 -5.992780
v -3.026053 1.834315 -12.223343
v -3.026053 1.834315 -5.992780
v -5.421664 1.834315 -9.108062
v 5.421664 1.834315 -9.108062
vn -0.0000 -0.0000 -1.0000
vn -1.0000 -0.0000 -0.0000
vn -0.0000 -0.0000 1.0000
vn 1.0000 -0.0000 -0.0000
vn -0.0000 -1.0000 -0.0000
vn -0.0000 1.0000 -0.0000
vt 0.000000 0.000000
vt 1.000000 0.000000
vt 0.000000 1.000000
vt 1.000000 1.000000
vt 0.000000 0.000000
vt 1.000000 0.000000
vt 0.000000 1.000000
vt 1.000000 1.000000
vt 0.779070 1.000000
vt 0.779070 1.000000
vt 0.779070 0.000000
vt 0.779070 0.000000
vt 0.558141 0.000000
vt 0.441859 0.000000
vt 0.441859 1.000000
vt 0.558141 1.000000
vt 0.558141 0.000000
vt 0.441859 0.000000
vt 0.441859 1.000000
vt 0.558141 1.000000
vt 0.220930 0.000000
vt 0.220930 1.000000
vt 0.220930 0.000000
vt 0.220930 1.000000
vt 0.000000 0.500000
vt 1.000000 0.500000
vt 0.779070 0.500000
vt 0.000000 0.500000
vt 1.000000 0.500000
vt 0.779070 0.500000
vt 0.558141 0.500000
vt 0.441859 0.500000
vt 0.558141 0.500000
vt 0.441859 0.500000
vt 0.220930 0.500000
vt 0.220930 0.500000
vt 0.779070 0.000000
vt 1.000000 1.000000
vt 1.000000 0.000000
vt 0.000000 0.000000
vt 0.000000 1.000000
vt 0.779070 1.000000
vt 0.558141 1.000000
vt 0.441859 1.000000
vt 0.441859 0.000000
vt 0.558141 0.000000
vt 0.220930 1.000000
vt 0.220930 0.000000
vt 0.000000 0.500000
vt 1.000000 0.500000
vt 0.000000 0.000000
vt 1.000000 0.000000
vt 0.000000 1.000000
vt 1.000000 1.000000
vt 0.000000 0.000000
vt 1.000000 0.000000
vt 0.000000 1.000000
vt 1.000000 1.000000
vt 0.779070 1.000000
vt 0.779070 1.000000
vt 0.779070 0.000000
vt 0.779070 0.000000
vt 0.558141 0.000000
vt 0.441859 0.000000
vt 0.441859 1.000000
vt 0.558141 1.000000
vt 0.558141 0.000000
vt 0.441859 0.000000
vt 0.441859 1.000000
vt 0.558141 1.000000
vt 0.220930 0.000000
vt 0.220930 1.000000
vt 0.220930 0.000000
vt 0.220930 1.000000
vt 0.000000 0.500000
vt 1.000000 0.500000
vt 0.779070 0.500000
vt 0.000000 0.500000
vt 1.000000 0.500000
vt 0.779070 0.500000
vt 0.558141 0.500000
vt 0.441859 0.500000
vt 0.558141 0.500000
vt 0.441859 0.500000
vt 0.220930 0.500000
vt 0.220930 0.500000
vt 0.779070 0.000000
vt 1.000000 1.000000
vt 1.000000 0.000000
vt 0.000000 0.000000
vt 0.000000 1.000000
vt 0.779070 1.000000
vt 0.558141 1.000000
vt 0.441859 1.000000
vt 0.441859 0.000000
vt 0.558141 0.000000
vt 0.220930 1.000000
vt 0.220930 0.000000
vt 0.000000 0.500000
vt 1.000000 0.500000
s 0
usemtl wall_surface
f 48/48/1 40/40/1 5/5/1 23/23/1
f 50/50/2 39/39/2 6/6/2 29/29/2
f 47/47/3 44/44/3 19/19/3 24/24/3
f 49/49/4 41/41/4 7/7/4 28/28/4
f 27/27/5 29/29/5 6/6/5 11/11/5
f 36/36/5 32/32/5 18/18/5 23/23/5
f 39/39/1 37/37/1 11/11/1 6/6/1
f 42/42/3 38/38/3 8/8/3 9/9/3
f 31/31/5 17/17/5 18/18/5 32/32/5
f 43/43/3 20/20/3 19/19/3 44/44/3
f 45/45/1 18/18/1 17/17/1 46/46/1
f 37/37/1 46/46/1 17/17/1 11/11/1
f 43/43/3 42/42/3 9/9/3 20/20/3
f 31/31/5 27/27/5 11/11/5 17/17/5
f 28/28/5 36/36/5 23/23/5 5/5/5
f 41/41/3 47/47/3 24/24/3 7/7/3
f 45/45/1 48/48/1 23/23/1 18/18/1
f 7/7/5 24/24/5 36/36/5 28/28/5
f 20/20/5 9/9/5 27/27/5 31/31/5
f 20/20/5 31/31/5 32/32/5 19/19/5
f 24/24/5 19/19/5 32/32/5 36/36/5
f 9/9/5 8/8/5 29/29/5 27/27/5
f 40/40/4 49/49/4 28/28/4 5/5/4
f 38/38/2 50/50/2 29/29/2 8/8/2
f 4/4/2 26/26/2 50/50/2 38/38/2
f 1/1/4 25/25/4 49/49/4 40/40/4
f 14/14/1 21/21/1 48/48/1 45/45/1
f 3/3/3 22/22/3 47/47/3 41/41/3
f 16/16/3 10/10/3 42/42/3 43/43/3
f 12/12/1 13/13/1 46/46/1 37/37/1
f 14/14/1 45/45/1 46/46/1 13/13/1
f 43/43/5 44/44/5 95/95/5 96/96/5
f 10/10/3 4/4/3 38/38/3 42/42/3
f 2/2/1 12/12/1 37/37/1 39/39/1
f 25/25/4 3/3/4 41/41/4 49/49/4
f 22/22/3 15/15/3 44/44/3 47/47/3
f 26/26/2 2/2/2 39/39/2 50/50/2
f 21/21/1 1/1/1 40/40/1 48/48/1
f 98/98/1 90/90/1 55/55/1 73/73/1
f 100/100/2 89/89/2 56/56/2 79/79/2
f 97/97/3 94/94/3 69/69/3 74/74/3
f 99/99/4 91/91/4 57/57/4 78/78/4
f 77/77/5 79/79/5 56/56/5 61/61/5
f 86/86/5 82/82/5 68/68/5 73/73/5
f 89/89/1 87/87/1 61/61/1 56/56/1
f 92/92/3 88/88/3 58/58/3 59/59/3
f 81/81/5 67/67/5 68/68/5 82/82/5
f 93/93/3 70/70/3 69/69/3 94/94/3
f 95/95/1 68/68/1 67/67/1 96/96/1
f 87/87/1 96/96/1 67/67/1 61/61/1
f 93/93/3 92/92/3 59/59/3 70/70/3
f 81/81/5 77/77/5 61/61/5 67/67/5
f 78/78/5 86/86/5 73/73/5 55/55/5
f 91/91/3 97/97/3 74/74/3 57/57/3
f 95/95/1 98/98/1 73/73/1 68/68/1
f 57/57/5 74/74/5 86/86/5 78/78/5
f 70/70/5 59/59/5 77/77/5 81/81/5
f 70/70/5 81/81/5 82/82/5 69/69/5
f 74/74/5 69/69/5 82/82/5 86/86/5
f 59/59/5 58/58/5 79/79/5 77/77/5
f 90/90/4 99/99/4 78/78/4 55/55/4
f 88/88/2 100/100/2 79/79/2 58/58/2
f 54/54/2 76/76/2 100/100/2 88/88/2
f 51/51/4 75/75/4 99/99/4 90/90/4
f 64/64/1 71/71/1 98/98/1 95/95/1
f 53/53/3 72/72/3 97/97/3 91/91/3
f 66/66/3 60/60/3 92/92/3 93/93/3
f 62/62/1 63/63/1 96/96/1 87/87/1
f 44/44/4 15/15/4 64/64/4 95/95/4
f 66/66/3 93/93/3 94/94/3 65/65/3
f 60/60/3 54/54/3 88/88/3 92/92/3
f 52/52/1 62/62/1 87/87/1 89/89/1
f 75/75/4 53/53/4 91/91/4 99/99/4
f 72/72/3 65/65/3 94/94/3 97/97/3
f 76/76/2 52/52/2 89/89/2 100/100/2
f 71/71/1 51/51/1 90/90/1 98/98/1
f 16/16/2 43/43/2 96/96/2 63/63/2
usemtl carpet_surface
f 35/35/6 34/34/6 15/15/6 22/22/6
f 30/30/6 26/26/6 4/4/6 10/10/6
f 33/33/6 16/16/6 15/15/6 34/34/6
f 33/33/6 30/30/6 10/10/6 16/16/6
f 25/25/6 35/35/6 22/22/6 3/3/6
f 1/1/6 21/21/6 35/35/6 25/25/6
f 13/13/6 12/12/6 30/30/6 33/33/6
f 13/13/6 33/33/6 34/34/6 14/14/6
f 12/12/6 2/2/6 26/26/6 30/30/6
f 21/21/6 14/14/6 34/34/6 35/35/6
f 85/85/6 84/84/6 65/65/6 72/72/6
f 80/80/6 76/76/6 54/54/6 60/60/6
f 83/83/6 66/66/6 65/65/6 84/84/6
f 83/83/6 80/80/6 60/60/6 66/66/6
f 75/75/6 85/85/6 72/72/6 53/53/6
f 51/51/6 71/71/6 85/85/6 75/75/6
f 63/63/6 62/62/6 80/80/6 83/83/6
f 63/63/6 83/83/6 84/84/6 64/64/6
f 62/62/6 52/52/6 76/76/6 80/80/6
f 71/71/6 64/64/6 84/84/6 85/85/6
f 15/15/6 16/16/6 63/63/6 64/64/6
