# Blender 3.5.0
# www.blender.org
mtllib placeholder_key.mtl
o Cube
v -0.103057 0.094444 -1.000000
v -0.103057 -0.094444 -1.000000
v -0.076214 0.094444 0.693817
v -0.076214 -0.094444 0.693817
v 0.103057 0.094444 -1.000000
v 0.103057 -0.094444 -1.000000
v 0.076214 0.094444 0.693817
v 0.076214 -0.094444 0.693817
v 0.076214 -0.094444 0.000000
v -0.076214 0.094444 0.000000
v 0.076214 0.094444 0.000000
v -0.076214 -0.094444 0.000000
v 0.076214 0.094444 -0.500000
v -0.076214 -0.094444 -0.500000
v 0.076214 -0.094444 -0.500000
v -0.076214 0.094444 -0.500000
v 0.103057 0.239055 -0.750000
v -0.103057 -0.239055 -0.750000
v 0.103057 -0.239055 -0.750000
v -0.103057 0.239055 -0.750000
v 0.076214 -0.094444 0.506163
v -0.076214 0.094444 0.506163
v 0.076214 0.094444 0.506163
v -0.076214 -0.094444 0.506163
v 0.076214 -0.285451 0.478518
v 0.076214 -0.285451 0.721463
v -0.076214 -0.285451 0.721463
v -0.076214 -0.285451 0.478518
vn -0.0000 1.0000 -0.0000
vn -0.0000 -0.0000 1.0000
vn 1.0000 -0.0000 -0.0000
vn -0.0000 0.1432 0.9897
vn -1.0000 -0.0000 -0.0000
vn -0.0000 -0.0000 -1.0000
vn -0.0000 -1.0000 -0.0000
vn -0.0000 0.8656 0.5007
vn -0.0000 -0.8656 0.5007
vn -0.9943 -0.0000 0.1068
vn -0.0000 -0.8656 -0.5007
vn -0.0000 0.8656 -0.5007
vn 0.9943 -0.0000 0.1068
vn -0.0000 0.1432 -0.9897
vt 0.625000 0.500000
vt 0.375000 0.500000
vt 0.625000 0.750000
vt 0.375000 0.750000
vt 0.625000 0.250000
vt 0.875000 0.500000
vt 0.375000 0.250000
vt 0.125000 0.500000
vt 0.875000 0.750000
vt 0.625000 1.000000
vt 0.625000 0.000000
vt 0.375000 1.000000
vt 0.375000 0.000000
vt 0.375000 0.125000
vt 0.125000 0.625000
vt 0.625000 0.625000
vt 0.625000 0.125000
vt 0.875000 0.625000
vt 0.375000 0.625000
vt 0.875000 0.562500
vt 0.625000 0.187500
vt 0.375000 0.562500
vt 0.125000 0.562500
vt 0.375000 0.187500
vt 0.625000 0.562500
vt 0.875000 0.531250
vt 0.625000 0.218750
vt 0.375000 0.531250
vt 0.125000 0.531250
vt 0.375000 0.218750
vt 0.625000 0.531250
vt 0.375000 0.036637
vt 0.125000 0.713363
vt 0.625000 0.713363
vt 0.625000 0.036637
vt 0.875000 0.713363
vt 0.375000 0.713363
vt 0.375000 0.036637
vt 0.125000 0.713363
vt 0.375000 1.000000
vt 0.125000 0.750000
vt 0.375000 0.000000
vt 0.375000 0.750000
vt 0.375000 0.713363
s 0
usemtl key_surface
f 22/34/1 3/3/1 7/9/1 23/36/1
f 4/4/2 8/12/2 7/10/2 3/3/2
f 19/30/3 6/7/3 5/5/3 17/27/3
f 4/4/4 27/43/4 26/40/4 8/12/4
f 24/37/5 4/4/5 3/3/5 22/34/5
f 6/7/6 2/2/6 1/1/6 5/5/6
f 14/22/5 12/19/5 10/16/5 16/25/5
f 15/23/7 9/15/7 12/19/7 14/22/7
f 21/32/3 9/14/3 11/17/3 23/35/3
f 16/25/1 10/16/1 11/18/1 13/20/1
f 20/31/8 16/25/8 13/20/8 17/26/8
f 19/29/9 15/23/9 14/22/9 18/28/9
f 18/28/10 14/22/10 16/25/10 20/31/10
f 9/14/3 15/24/3 13/21/3 11/17/3
f 2/2/5 18/28/5 20/31/5 1/1/5
f 6/8/11 19/29/11 18/28/11 2/2/11
f 1/1/12 20/31/12 17/26/12 5/6/12
f 15/24/13 19/30/13 17/27/13 13/21/13
f 8/13/3 21/32/3 23/35/3 7/11/3
f 12/19/5 24/37/5 22/34/5 10/16/5
f 9/15/7 21/33/7 24/37/7 12/19/7
f 10/16/1 22/34/1 23/36/1 11/18/1
f 25/39/7 26/41/7 27/43/7 28/44/7
f 24/37/5 28/44/5 27/43/5 4/4/5
f 8/13/3 26/42/3 25/38/3 21/32/3
f 21/33/14 25/39/14 28/44/14 24/37/14
