# Blender 3.5.0
# www.blender.org
mtllib placeholder_box.mtl
o Cube
v 0.484012 0.484012 -0.930329
v 0.484012 0.930329 -0.484012
v 0.930329 0.484012 -0.484012
v 0.484012 -0.930329 -0.484012
v 0.484012 -0.484012 -0.930329
v 0.930329 -0.484012 -0.484012
v 0.930329 0.484012 0.484012
v 0.484012 0.930329 0.484012
v 0.484012 0.484012 0.930329
v 0.930329 -0.484012 0.484012
v 0.484012 -0.484012 0.930329
v 0.484012 -0.930329 0.484012
v -0.484012 0.484012 -0.930329
v -0.930329 0.484012 -0.484012
v -0.484012 0.930329 -0.484012
v -0.930329 -0.484012 -0.484012
v -0.484012 -0.484012 -0.930329
v -0.484012 -0.930329 -0.484012
v -0.930329 0.484012 0.484012
v -0.484012 0.484012 0.930329
v -0.484012 0.930329 0.484012
v -0.484012 -0.930329 0.484012
v -0.484012 -0.484012 0.930329
v -0.930329 -0.484012 0.484012
v -0.718467 -1.000000 -0.718467
v -0.718467 -1.000000 0.718467
v -1.000000 -0.718467 0.718467
v -1.000000 -0.718467 -0.718467
v 0.718467 -1.000000 -0.718467
v -0.718467 -0.718467 -1.000000
v 0.718467 -0.718467 -1.000000
v 1.000000 0.718467 -0.718467
v 1.000000 -0.718467 -0.718467
v 0.718467 0.718467 -1.000000
v -0.718467 -0.718467 1.000000
v -0.718467 0.718467 1.000000
v -1.000000 0.718467 0.718467
v 0.718467 0.718467 1.000000
v 0.718467 -0.718467 1.000000
v 1.000000 -0.718467 0.718467
v 1.000000 0.718467 0.718467
v -0.718467 0.718467 -1.000000
v -1.000000 0.718467 -0.718467
v 0.718467 1.000000 0.718467
v -0.718467 1.000000 0.718467
v 0.718467 1.000000 -0.718467
v 0.718467 -1.000000 0.718467
v -0.718467 1.000000 -0.718467
vn -0.0000 -1.0000 -0.0000
vn -1.0000 -0.0000 -0.0000
vn -0.0000 -0.0000 1.0000
vn -0.0000 1.0000 -0.0000
vn 1.0000 -0.0000 -0.0000
vn 0.5774 0.5774 -0.5774
vn 0.5774 -0.5774 -0.5774
vn 0.5774 0.5774 0.5774
vn 0.5774 -0.5774 0.5774
vn -0.5774 0.5774 -0.5774
vn -0.5774 -0.5774 -0.5774
vn -0.5774 0.5774 0.5774
vn -0.5774 -0.5774 0.5774
vn -0.7071 -0.7071 -0.0000
vn -0.0000 -0.7071 -0.7071
vn 0.7071 -0.0000 -0.7071
vn -0.7071 -0.0000 0.7071
vn 0.7071 -0.0000 0.7071
vn -0.7071 -0.0000 -0.7071
vn -0.0000 0.7071 0.7071
vn 0.7071 0.7071 -0.0000
vn -0.0000 -0.7071 0.7071
vn -0.7071 0.7071 -0.0000
vn -0.0000 0.7071 -0.7071
vn 0.7071 -0.7071 -0.0000
vn -0.0000 -0.0000 -1.0000
vn 0.2849 -0.9586 -0.0000
vn -0.9586 0.2849 -0.0000
vn -0.0000 -0.9586 0.2849
vn -0.0000 0.2849 -0.9586
vn 0.9586 -0.0000 0.2849
vn -0.2849 -0.0000 -0.9586
vn 0.2849 -0.0000 0.9586
vn -0.9586 -0.0000 -0.2849
vn -0.2849 -0.0000 0.9586
vn 0.9586 -0.0000 -0.2849
vn 0.2849 -0.0000 -0.9586
vn -0.9586 -0.0000 0.2849
vn -0.0000 0.9586 -0.2849
vn -0.0000 -0.2849 0.9586
vn -0.2849 0.9586 -0.0000
vn 0.9586 -0.2849 -0.0000
vn -0.0000 -0.9586 -0.2849
vn -0.0000 0.2849 0.9586
vn 0.2849 0.9586 -0.0000
vn -0.9586 -0.2849 -0.0000
vn -0.0000 0.9586 0.2849
vn -0.0000 -0.2849 -0.9586
vn -0.2849 -0.9586 -0.0000
vn 0.9586 0.2849 -0.0000
vt 0.565032 0.440032
vt 0.684968 0.559968
vt 0.565032 0.559968
vt 0.315032 0.559968
vt 0.434968 0.440032
vt 0.434968 0.559968
vt 0.565032 0.690032
vt 0.684968 0.690032
vt 0.565032 0.809968
vt 0.434968 0.690032
vt 0.434968 0.809968
vt 0.315032 0.690032
vt 0.565032 0.309968
vt 0.565032 0.190032
vt 0.815032 0.559968
vt 0.434968 0.190032
vt 0.434968 0.309968
vt 0.184968 0.559968
vt 0.565032 0.059968
vt 0.565032 0.940032
vt 0.815032 0.690032
vt 0.184968 0.690032
vt 0.434968 0.940032
vt 0.434968 0.059968
vt 0.375000 0.214808
vt 0.160192 0.535192
vt 0.160192 0.714808
vt 0.125000 0.714808
vt 0.410192 1.000000
vt 0.410192 0.035192
vt 0.125000 0.535192
vt 0.410192 0.214808
vt 0.339808 0.535192
vt 0.410192 0.250000
vt 0.160192 0.500000
vt 0.410192 0.285192
vt 0.339808 0.500000
vt 0.410192 0.464808
vt 0.589808 0.500000
vt 0.589808 0.535192
vt 0.375000 0.535192
vt 0.410192 0.535192
vt 0.660192 0.500000
vt 0.589808 0.464808
vt 0.160192 0.750000
vt 0.410192 0.964808
vt 0.589808 0.000000
vt 0.839808 0.750000
vt 0.589808 0.964808
vt 0.589808 1.000000
vt 0.875000 0.714808
vt 0.589808 0.035192
vt 0.589808 0.750000
vt 0.660192 0.750000
vt 0.589808 0.785192
vt 0.410192 0.750000
vt 0.339808 0.750000
vt 0.410192 0.785192
vt 0.410192 0.714808
vt 0.589808 0.714808
vt 0.839808 0.500000
vt 0.589808 0.285192
vt 0.589808 0.250000
vt 0.875000 0.535192
vt 0.589808 0.214808
vt 0.625000 0.714808
vt 0.660192 0.714808
vt 0.625000 0.035192
vt 0.839808 0.714808
vt 0.625000 0.464808
vt 0.660192 0.535192
vt 0.375000 0.714808
vt 0.339808 0.714808
vt 0.625000 0.285192
vt 0.839808 0.535192
s 0
usemtl box_surface
f 18/18/1 4/4/1 12/12/1 22/22/1
f 24/24/2 19/19/2 14/14/2 16/16/2
f 11/11/3 9/9/3 20/20/3 23/23/3
f 2/2/4 15/15/4 21/21/4 8/8/4
f 6/6/5 3/3/5 7/7/5 10/10/5
f 34/44/6 46/70/6 32/39/6
f 29/33/7 31/37/7 33/41/7
f 41/60/8 44/66/8 38/53/8
f 40/59/9 39/56/9 47/72/9
f 42/62/10 43/63/10 48/74/10
f 28/32/11 30/34/11 25/25/11
f 37/52/12 36/47/12 45/68/12
f 26/27/13 35/45/13 27/28/13
f 25/26/14 26/27/14 27/28/14 28/31/14
f 29/33/15 25/26/15 30/35/15 31/37/15
f 32/40/16 33/42/16 31/38/16 34/44/16
f 35/46/17 36/49/17 37/50/17 27/29/17
f 38/55/18 39/58/18 40/59/18 41/60/18
f 42/62/19 30/36/19 28/32/19 43/65/19
f 44/67/20 45/69/20 36/48/20 38/54/20
f 46/71/21 44/67/21 41/60/21 32/40/21
f 26/27/22 47/73/22 39/57/22 35/45/22
f 45/69/23 48/75/23 43/64/23 37/51/23
f 48/75/24 46/71/24 34/43/24 42/61/24
f 47/73/25 29/33/25 33/42/25 40/59/25
f 17/17/26 13/13/26 1/1/26 5/5/26
f 18/18/27 22/22/27 26/27/27 25/26/27
f 24/24/28 16/16/28 28/32/28 27/30/28
f 4/4/29 18/18/29 25/26/29 29/33/29
f 17/17/30 5/5/30 31/38/30 30/36/30
f 3/3/31 6/6/31 33/42/31 32/40/31
f 5/5/32 1/1/32 34/44/32 31/38/32
f 23/23/33 20/20/33 36/49/33 35/46/33
f 19/19/34 24/24/34 27/30/34 37/52/34
f 9/9/35 11/11/35 39/58/35 38/55/35
f 10/10/36 7/7/36 41/60/36 40/59/36
f 13/13/37 17/17/37 30/36/37 42/62/37
f 16/16/38 14/14/38 43/65/38 28/32/38
f 8/8/39 21/21/39 45/69/39 44/67/39
f 20/20/40 9/9/40 38/55/40 36/49/40
f 2/2/41 8/8/41 44/67/41 46/71/41
f 7/7/42 3/3/42 32/40/42 41/60/42
f 22/22/43 12/12/43 47/73/43 26/27/43
f 11/11/44 23/23/44 35/46/44 39/58/44
f 21/21/45 15/15/45 48/75/45 45/69/45
f 14/14/46 19/19/46 37/52/46 43/65/46
f 15/15/47 2/2/47 46/71/47 48/75/47
f 1/1/48 13/13/48 42/62/48 34/44/48
f 12/12/49 4/4/49 29/33/49 47/73/49
f 6/6/50 10/10/50 40/59/50 33/42/50
