# Blender 3.5.1
# www.blender.org
mtllib door.mtl
o Cube
v 0.500000 2.000000 -0.062500
v 0.500000 0.000000 -0.062500
v 0.500000 2.000000 0.062500
v 0.500000 0.000000 0.062500
v -0.500000 2.000000 -0.062500
v -0.500000 0.000000 -0.062500
v -0.500000 2.000000 0.062500
v -0.500000 0.000000 0.062500
v 0.375000 0.000000 -0.062500
v -0.375000 0.000000 -0.062500
v 0.375000 2.000000 0.062500
v -0.375000 2.000000 0.062500
v 0.375000 0.000000 0.062500
v -0.375000 0.000000 0.062500
v -0.375000 2.000000 -0.062500
v 0.375000 2.000000 -0.062500
v -0.500000 0.125000 -0.062500
v -0.500000 1.875000 -0.062500
v 0.500000 0.125000 0.062500
v 0.500000 1.875000 0.062500
v -0.500000 1.875000 0.062500
v -0.500000 0.125000 0.062500
v 0.500000 0.125000 -0.062500
v 0.500000 1.875000 -0.062500
v 0.375000 1.875000 -0.062500
v 0.375000 0.125000 -0.062500
v -0.375000 1.875000 -0.062500
v -0.375000 0.125000 -0.062500
v -0.375000 1.875000 0.062500
v -0.375000 0.125000 0.062500
v 0.375000 1.875000 0.062500
v 0.375000 0.125000 0.062500
v -0.250000 0.812500 -0.125000
v -0.250000 1.250000 -0.125000
v -0.250000 0.812500 -0.062500
v -0.250000 1.250000 -0.062500
v -0.375000 0.812500 -0.125000
v -0.375000 1.250000 -0.125000
v -0.375000 0.812500 -0.062500
v -0.375000 1.250000 -0.062500
v -0.500000 1.125000 -0.062500
v -0.500000 1.000000 -0.062500
v -0.375000 1.000000 -0.062500
v -0.375000 1.125000 -0.062500
v 0.500000 1.125000 0.062500
v 0.500000 1.000000 0.062500
v 0.375000 1.000000 0.062500
v 0.375000 1.125000 0.062500
v 0.375000 1.000000 -0.062500
v 0.375000 1.125000 -0.062500
v -0.375000 1.000000 0.062500
v -0.375000 1.125000 0.062500
v -0.500000 1.000000 0.062500
v -0.500000 1.125000 0.062500
v 0.500000 1.125000 -0.062500
v 0.500000 1.000000 -0.062500
vn -0.0000 -0.0000 1.0000
vn -0.0000 1.0000 -0.0000
vn 1.0000 -0.0000 -0.0000
vn -0.0000 -0.0000 -1.0000
vn -0.0000 -1.0000 -0.0000
vn -1.0000 -0.0000 -0.0000
vt 0.812500 0.000000
vt 0.729167 1.000000
vt 0.687500 1.000000
vt 0.729167 0.000000
vt 0.770833 1.000000
vt 0.687500 0.000000
vt 0.770833 0.000000
vt 0.687500 1.000000
vt 0.343750 1.000000
vt 0.687500 0.000000
vt 0.812500 1.000000
vt 0.343750 0.000000
vt 0.770833 1.000000
vt 0.812500 0.484375
vt 0.343750 1.000000
vt 0.770833 0.484375
vt 0.770833 0.000000
vt 0.343750 0.000000
vt 0.000000 1.000000
vt 0.729167 1.000000
vt 0.770833 0.484375
vt 0.000000 0.000000
vt 0.812500 0.484375
vt 0.729167 0.000000
vt 0.770833 0.937500
vt 0.645833 0.000000
vt 0.770833 0.546875
vt 0.385417 0.000000
vt 0.770833 0.062500
vt 0.302083 1.000000
vt 0.041667 1.000000
vt 0.770833 0.421875
vt 0.812500 0.937500
vt 0.302083 0.000000
vt 0.041667 0.000000
vt 0.812500 0.546875
vt 0.812500 0.421875
vt 0.385417 1.000000
vt 0.812500 0.062500
vt 0.645833 1.000000
vt 0.343750 0.062500
vt 0.770833 0.062500
vt 0.770833 0.937500
vt 0.343750 0.937500
vt 0.343750 0.062500
vt 0.687500 0.062500
vt 0.343750 0.937500
vt 0.687500 0.937500
vt 0.000000 0.937500
vt 0.729167 0.937500
vt 0.000000 0.062500
vt 0.729167 0.062500
vt 0.687500 0.062500
vt 0.729167 0.062500
vt 0.729167 0.937500
vt 0.687500 0.937500
vt 0.645833 0.937500
vt 0.645833 0.062500
vt 0.385417 0.937500
vt 0.385417 0.062500
vt 0.041667 0.937500
vt 0.041667 0.062500
vt 0.302083 0.937500
vt 0.302083 0.062500
vt 1.000000 0.000000
vt 1.000000 0.093750
vt 0.833333 0.000000
vt 0.854167 0.093750
vt 0.854167 0.000000
vt 1.000000 0.125000
vt 0.968750 0.203125
vt 0.812500 0.000000
vt 0.854167 0.125000
vt 0.989583 0.203125
vt 0.833333 0.000000
vt 0.854167 0.093750
vt 1.000000 0.062500
vt 0.833333 0.062500
vt 1.000000 0.093750
vt 0.854167 0.062500
vt 0.854167 0.062500
vt 0.968750 0.125000
vt 0.812500 0.062500
vt 1.000000 0.062500
vt 0.989583 0.125000
vt 0.833333 0.062500
vt 0.770833 0.546875
vt 0.343750 0.546875
vt 0.770833 0.484375
vt 0.343750 0.484375
vt 0.385417 0.484375
vt 0.385417 0.546875
vt 0.687500 0.546875
vt 0.343750 0.546875
vt 0.687500 0.484375
vt 0.343750 0.484375
vt 0.302083 0.484375
vt 0.302083 0.546875
vt 0.645833 0.484375
vt 0.645833 0.546875
vt 0.041667 0.484375
vt 0.041667 0.546875
vt 0.729167 0.484375
vt 0.000000 0.484375
vt 0.729167 0.546875
vt 0.000000 0.546875
vt 0.687500 0.546875
vt 0.729167 0.546875
vt 0.687500 0.484375
vt 0.729167 0.484375
s 0
usemtl Material
f 30/62/1 14/35/1 13/34/1 32/64/1
f 1/1/2 16/39/2 11/29/2 3/7/2
f 2/4/3 23/54/3 19/46/3 4/10/3
f 16/40/4 25/57/4 27/59/4 15/38/4
f 29/61/1 12/31/1 7/19/1 21/49/1
f 14/35/1 30/62/1 22/51/1 8/22/1
f 9/25/5 2/5/5 4/11/5 13/33/5
f 21/50/6 7/20/6 5/13/6 18/43/6
f 15/37/2 5/14/2 7/21/2 12/32/2
f 24/55/3 1/2/3 3/8/3 20/48/3
f 12/31/1 29/61/1 31/63/1 11/30/1
f 9/25/5 13/33/5 14/36/5 10/27/5
f 15/37/2 12/32/2 11/29/2 16/39/2
f 6/16/5 10/27/5 14/36/5 8/23/5
f 26/58/4 9/26/4 10/28/4 28/60/4
f 20/47/1 3/9/1 11/30/1 31/63/1
f 8/24/6 22/52/6 17/42/6 6/17/6
f 9/26/4 26/58/4 23/53/4 2/6/4
f 4/12/1 19/45/1 32/64/1 13/34/1
f 25/57/4 16/40/4 1/3/4 24/56/4
f 18/44/4 5/15/4 15/38/4 27/59/4
f 26/58/4 28/60/4 43/91/4 49/99/4
f 30/62/1 32/64/1 47/97/1 51/101/1
f 20/47/1 31/63/1 48/98/1 45/94/1
f 49/99/4 56/109/4 23/53/4 26/58/4
f 29/61/1 21/49/1 54/106/1 52/102/1
f 24/55/3 20/48/3 45/93/3 55/108/3
f 25/57/4 24/56/4 55/107/4 50/100/4
f 21/50/6 18/43/6 41/87/6 54/105/6
f 6/18/4 17/41/4 28/60/4 10/28/4
f 42/90/4 43/91/4 28/60/4 17/41/4
f 51/101/1 53/104/1 22/51/1 30/62/1
f 46/96/1 47/97/1 32/64/1 19/45/1
f 40/84/6 38/79/6 37/76/6 39/81/6
f 52/102/1 48/98/1 31/63/1 29/61/1
f 50/100/4 44/92/4 27/59/4 25/57/4
f 56/110/3 46/95/3 19/46/3 23/54/3
f 53/103/6 42/89/6 17/42/6 22/52/6
f 42/89/6 53/103/6 54/105/6 41/87/6
f 56/109/4 49/99/4 50/100/4 55/107/4
f 46/95/3 56/110/3 55/108/3 45/93/3
f 53/104/1 51/101/1 52/102/1 54/106/1
f 48/98/1 52/102/1 51/101/1 47/97/1
f 44/92/4 50/100/4 49/99/4 43/91/4
f 47/97/1 46/96/1 45/94/1 48/98/1
f 43/91/4 42/90/4 41/88/4 44/92/4
f 18/44/4 27/59/4 44/92/4 41/88/4
f 38/80/4 34/69/4 33/65/4 37/77/4
f 34/68/3 36/73/3 35/70/3 33/66/3
f 36/74/1 40/85/1 39/82/1 35/71/1
f 38/80/2 40/86/2 36/75/2 34/69/2
f 33/67/5 35/72/5 39/83/5 37/78/5
