# Blender 3.5.0
# www.blender.org
mtllib prototype_room.mtl
o Cube
v -2.436636 0.000000 2.783401
v 2.608659 0.000000 2.783401
v -2.436636 0.000000 -2.783401
v 2.608659 0.000000 -2.783401
v -2.436636 0.000000 0.000000
v 2.608659 0.000000 0.000000
v 0.625098 0.000000 -3.283401
v -0.625098 0.000000 -3.283401
v 0.625098 0.000000 2.783401
v -0.625098 0.000000 2.783401
v -0.625098 0.000000 -2.783401
v 0.625098 0.000000 -2.783401
v 0.625098 0.000000 0.000000
v -0.625098 0.000000 0.000000
v 0.625098 0.000000 -9.997567
v -0.625098 0.000000 -9.997567
v 5.108286 0.000000 -3.283401
v -2.380891 0.000000 -3.283401
v 5.108286 0.000000 -9.997567
v -2.380891 0.000000 -9.997567
v -2.436636 0.000000 2.783401
v -2.436636 0.000000 -2.783401
v -2.436636 0.000000 0.000000
v 5.108286 0.000000 -2.783401
v 5.108286 0.000000 0.000000
v 2.608659 0.000000 -9.997567
v 2.608659 0.000000 -3.283401
v -2.436636 2.152554 2.783401
v 2.608659 2.152554 2.783401
v -2.436636 2.152554 -2.783401
v 2.608659 2.152554 -2.783401
v 2.608659 2.152554 0.000000
v 0.625098 2.152554 -3.283401
v -0.625098 2.152554 -3.283401
v 0.625098 2.152554 2.783401
v -0.625098 2.152554 2.783401
v -0.625098 2.152554 -2.783401
v 0.625098 2.152554 -2.783401
v 0.625098 2.152554 -9.997567
v -0.625098 2.152554 -9.997567
v 5.108286 2.152554 -3.283401
v -2.380891 2.152554 -3.283401
v 5.108286 2.152554 -9.997567
v -2.380891 2.152554 -9.997567
v -2.436636 2.152554 2.783401
v -2.436636 2.152554 -2.783401
v -2.436636 2.152554 0.000000
v 5.108286 2.152554 -2.783401
v 5.108286 2.152554 0.000000
v 2.608659 2.152554 -9.997567
v 2.608659 2.152554 -3.283401
v -2.436636 3.980247 2.783401
v 2.608659 3.980247 2.783401
v -2.436636 3.980247 -2.783401
v 2.608659 3.980247 -2.783401
v 2.608659 3.980247 0.000000
v 0.625098 3.076868 -3.283401
v -0.625098 3.076868 -3.283401
v 0.625098 3.980247 2.783401
v -0.625098 3.980247 2.783401
v -0.625098 3.980247 -2.783401
v 0.625098 3.980247 -2.783401
v 0.625098 3.076868 -9.997567
v -0.625098 3.076868 -9.997567
v 5.108286 3.076868 -3.283401
v -2.380891 3.076868 -3.283401
v 5.108286 3.076868 -9.997567
v -2.380891 3.076868 -9.997567
v -2.436636 3.980247 2.783401
v -2.436636 3.980247 -2.783401
v -2.436636 3.980247 0.000000
v 2.608659 3.076868 -9.997567
v 2.608659 3.076868 -3.283401
v -2.436636 4.830529 2.783401
v 2.608659 4.830529 2.783401
v -2.436636 4.830529 -2.783401
v 2.608659 4.830529 -2.783401
v 2.608659 4.830529 0.000000
v 0.625098 4.830529 2.783401
v -0.625098 4.830529 2.783401
v -0.625098 4.830529 -2.783401
v 0.625098 4.830529 -2.783401
v -2.436636 4.830529 2.783401
v -2.436636 4.830529 -2.783401
v -2.436636 4.830529 0.000000
v -0.625098 4.830529 0.000000
v 0.625098 4.830529 0.000000
v 0.625098 2.152554 3.419302
v -0.625098 2.152554 3.419302
v 0.625098 4.078199 3.419302
v -0.625098 4.078199 3.419302
v 0.625098 2.152554 6.475472
v -0.625098 2.152554 6.475472
v 2.160360 2.152554 3.419302
v -2.160360 2.152554 3.419302
v 2.160360 2.152554 6.475472
v -2.160360 2.152554 6.475472
v 0.625098 4.078199 6.475472
v -0.625098 4.078199 6.475472
v 2.160360 4.078199 3.419302
v -2.160360 4.078199 3.419302
v 2.160360 4.078199 6.475472
v -2.160360 4.078199 6.475472
v 0.625098 4.831104 3.419302
v -0.625098 4.831104 3.419302
v 0.625098 4.831104 6.475472
v -0.625098 4.831104 6.475472
v 2.160360 4.831104 3.419302
v -2.160360 4.831104 3.419302
v 2.160360 4.831104 6.475472
v -2.160360 4.831104 6.475472
v 0.625098 2.152554 4.947388
v -0.625098 2.152554 4.947388
v 2.160360 2.152554 4.947388
v -2.160360 2.152554 4.947388
v 2.160360 4.078199 4.947388
v -2.160360 4.078199 4.947388
v 2.160360 4.831104 4.947388
v -2.160360 4.831104 4.947388
v -0.625098 4.831104 4.947388
v 0.625098 4.831104 4.947388
vn -0.0000 1.0000 -0.0000
vn 1.0000 -0.0000 -0.0000
vn -1.0000 -0.0000 -0.0000
vn -0.0000 -0.0000 1.0000
vn -0.0000 -0.0000 -1.0000
vn -0.0000 -1.0000 -0.0000
vn -0.0000 -0.9883 0.1522
vt 0.590305 0.999892
vt 0.000000 0.000000
vt 0.195640 0.999892
vt 1.000000 0.000000
vt 0.590305 0.564432
vt 0.000000 1.000000
vt 0.195640 0.564432
vt 1.000000 1.000000
vt 0.590305 0.782162
vt 0.195640 0.782162
vt 1.000000 0.500000
vt 0.628271 1.000000
vt 0.350803 0.525320
vt 0.371729 1.000000
vt 0.448599 0.525320
vt 0.350803 0.999892
vt 0.628271 0.000000
vt 0.448599 0.999892
vt 0.371729 0.000000
vt 0.448599 0.564432
vt 0.371729 1.000000
vt 0.350803 0.564432
vt 0.628271 1.000000
vt 0.350803 0.782162
vt 0.448599 0.782162
vt 0.350803 0.000108
vt 0.628271 1.000000
vt 0.371729 1.000000
vt 0.448599 0.000108
vt 0.000108 0.525320
vt 0.628271 1.000000
vt 0.585945 0.525320
vt 0.371729 1.000000
vt 0.000108 0.000108
vt 0.628271 1.000000
vt 0.585945 0.000108
vt 0.371729 1.000000
vt 0.000000 0.000000
vt 0.000000 0.000000
vt 0.000000 0.000000
vt 0.000108 0.564432
vt 1.000000 1.000000
vt 0.000108 0.782162
vt 1.000000 0.500000
vt 0.195640 0.000108
vt 0.628271 1.000000
vt 0.195640 0.525320
vt 0.628271 1.000000
vt 0.000000 0.000000
vt 1.000000 0.000000
vt 0.000000 1.000000
vt 0.000000 0.000000
vt 1.000000 1.000000
vt 1.000000 0.500000
vt 0.000000 0.000000
vt 0.628271 1.000000
vt 0.371729 1.000000
vt 0.590521 0.217999
vt 0.628271 0.000000
vt 0.590521 0.120203
vt 0.371729 0.000000
vt 0.371729 1.000000
vt 0.628271 1.000000
vt 0.628271 1.000000
vt 0.371729 1.000000
vt 0.628271 1.000000
vt 0.371729 1.000000
vt 0.628271 1.000000
vt 0.371729 1.000000
vt 0.000000 0.000000
vt 0.000000 0.000000
vt 0.000000 0.000000
vt 1.000000 1.000000
vt 0.000000 0.000000
vt 1.000000 0.500000
vt 0.000000 0.000000
vt 0.628271 1.000000
vt 0.628271 1.000000
vt 0.000000 0.000000
vt 1.000000 0.000000
vt 0.000000 1.000000
vt 1.000000 1.000000
vt 1.000000 0.500000
vt 0.628271 1.000000
vt 0.371729 1.000000
vt 0.628271 0.000000
vt 0.371729 0.000000
vt 0.371729 1.000000
vt 0.628271 1.000000
vt 0.628271 1.000000
vt 0.371729 1.000000
vt 0.628271 1.000000
vt 0.371729 1.000000
vt 0.628271 1.000000
vt 0.371729 1.000000
vt 0.000000 0.000000
vt 0.000000 0.000000
vt 0.000000 0.000000
vt 0.628271 1.000000
vt 0.628271 1.000000
vt 0.000000 0.000000
vt 1.000000 0.000000
vt 0.000000 1.000000
vt 1.000000 1.000000
vt 1.000000 0.500000
vt 0.628271 0.000000
vt 0.371729 0.000000
vt 0.371729 1.000000
vt 0.628271 1.000000
vt 0.000000 0.000000
vt 0.000000 0.000000
vt 0.000000 0.000000
vt 0.371729 0.500000
vt 0.628271 0.500000
vt 0.628271 0.000000
vt 0.640264 0.217999
vt 0.371729 0.000000
vt 0.640264 0.120203
vt 0.628271 0.000000
vt 0.371729 0.000000
vt 0.879331 0.217999
vt 0.628271 0.000000
vt 0.371729 0.000000
vt 0.879331 0.120203
vt 0.628271 0.000000
vt 0.640264 0.338094
vt 0.640264 0.000108
vt 0.371729 0.000000
vt 0.879331 0.338094
vt 0.628271 0.000000
vt 0.371729 0.000000
vt 0.879331 0.000108
vt 0.628271 0.000000
vt 0.371729 0.000000
vt 0.628271 0.000000
vt 0.371729 0.000000
vt 0.628271 0.000000
vt 0.371729 0.000000
vt 0.628271 0.000000
vt 0.371729 0.000000
vt 0.628271 0.000000
vt 0.371729 0.000000
vt 0.628271 0.000000
vt 0.371729 0.000000
vt 0.628271 0.000000
vt 0.371729 0.000000
vt 0.759798 0.217999
vt 0.759798 0.120203
vt 0.628271 0.000000
vt 0.759798 0.338094
vt 0.371729 0.000000
vt 0.759798 0.000108
vt 0.628271 0.000000
vt 0.371729 0.000000
vt 0.628271 0.000000
vt 0.371729 0.000000
vt 0.371729 0.000000
vt 0.628271 0.000000
s 0
usemtl wall
f 66/93/2 42/67/2 44/69/2 68/95/2
f 6/11/3 2/4/3 29/50/3 32/54/3
f 3/6/4 11/21/4 37/62/4 30/51/4
f 25/44/5 6/11/5 32/54/5 49/75/5
f 27/48/5 51/78/5 41/66/5 17/31/5
f 11/21/2 8/14/2 34/57/2 37/62/2
f 12/23/4 4/8/4 31/53/4 38/63/4
f 26/46/4 19/35/4 43/68/4 50/77/4
f 8/14/5 18/33/5 42/67/5 34/57/5
f 16/28/4 15/27/4 39/64/4 40/65/4
f 27/48/5 7/12/5 33/56/5 51/78/5
f 20/37/4 16/28/4 40/65/4 44/69/4
f 7/12/3 12/23/3 38/63/3 33/56/3
f 2/4/5 9/17/5 35/59/5 29/50/5
f 21/38/2 23/40/2 47/72/2 45/70/2
f 9/17/5 10/19/5 36/61/5 35/59/5
f 4/8/2 27/48/2 51/78/2 31/53/2
f 23/40/2 22/39/2 46/71/2 47/72/2
f 17/31/3 24/42/3 48/73/3 41/66/3
f 6/11/3 32/54/3 31/53/3 4/8/3
f 10/19/5 1/2/5 28/49/5 36/61/5
f 24/42/3 25/44/3 49/75/3 48/73/3
f 15/27/4 26/46/4 50/77/4 39/64/4
f 32/54/3 29/50/3 53/80/3 56/83/3
f 45/70/2 47/72/2 71/98/2 69/96/2
f 40/65/4 39/64/4 63/90/4 64/91/4
f 34/57/6 33/56/6 38/63/6 37/62/6
f 47/72/2 46/71/2 70/97/2 71/98/2
f 38/63/4 62/89/4 61/88/4 37/62/4
f 39/64/4 50/77/4 72/99/4 63/90/4
f 29/50/5 35/59/5 59/86/5 53/80/5
f 50/77/4 43/68/4 67/94/4 72/99/4
f 51/78/5 73/100/5 65/92/5 41/66/5
f 36/61/5 28/49/5 52/79/5 60/87/5
f 51/78/5 33/56/5 57/84/5 73/100/5
f 34/57/5 42/67/5 66/93/5 58/85/5
f 30/51/4 37/62/4 61/88/4 54/81/4
f 32/54/3 56/83/3 55/82/3 31/53/3
f 44/69/4 40/65/4 64/91/4 68/95/4
f 38/63/4 31/53/4 55/82/4 62/89/4
f 53/80/5 59/86/5 79/106/5 75/102/5
f 60/87/5 52/79/5 74/101/5 80/107/5
f 54/81/4 61/88/4 81/108/4 76/103/4
f 56/83/3 78/105/3 77/104/3 55/82/3
f 62/89/4 55/82/4 77/104/4 82/109/4
f 56/83/3 53/80/3 75/102/3 78/105/3
f 69/96/2 71/98/2 85/112/2 83/110/2
f 62/89/4 82/109/4 81/108/4 61/88/4
f 71/98/2 70/97/2 84/111/2 85/112/2
f 34/57/5 58/85/5 57/84/5 33/56/5
f 59/86/5 60/87/5 80/107/5 79/106/5
f 18/33/2 20/37/2 44/69/2 42/67/2
f 63/90/6 57/84/6 58/85/6 64/91/6
f 72/99/6 73/100/6 57/84/6 63/90/6
f 73/100/6 72/99/6 67/94/6 65/92/6
f 67/94/3 43/68/3 41/66/3 65/92/3
f 19/35/3 17/31/3 41/66/3 43/68/3
f 66/93/6 68/95/6 64/91/6 58/85/6
f 49/76/6 32/55/6 31/52/6 48/74/6
f 51/78/6 41/66/6 48/74/6 31/53/6
f 86/113/6 85/112/6 84/111/6 76/103/6 81/108/6
f 87/114/6 86/113/6 81/108/6 82/109/6
f 78/105/6 75/102/6 79/106/6 87/114/6
f 79/106/6 80/107/6 86/113/6 87/114/6
f 74/101/6 83/110/6 85/112/6 86/113/6 80/107/6
f 77/104/6 78/105/6 87/114/6 82/109/6
f 60/87/7 59/86/7 90/119/7 91/120/7
f 59/86/3 35/59/3 88/115/3 90/119/3
f 36/61/2 60/87/2 91/120/2 89/117/2
f 96/130/5 92/122/5 98/133/5 102/137/5
f 95/128/4 89/117/4 91/120/4 101/136/4
f 115/151/2 95/128/2 101/136/2 117/154/2
f 92/122/5 93/123/5 99/134/5 98/133/5
f 88/115/4 94/125/4 100/135/4 90/119/4
f 93/123/5 97/131/5 103/138/5 99/134/5
f 114/149/3 96/130/3 102/137/3 116/153/3
f 101/136/4 91/120/4 105/140/4 109/144/4
f 91/120/4 90/119/4 104/139/4 105/140/4
f 102/137/5 98/133/5 106/141/5 110/145/5
f 117/154/2 101/136/2 109/144/2 119/156/2
f 98/133/5 99/134/5 107/142/5 106/141/5
f 99/134/5 103/138/5 111/146/5 107/142/5
f 90/119/4 100/135/4 108/143/4 104/139/4
f 116/153/3 102/137/3 110/145/3 118/155/3
f 118/155/6 121/158/6 104/139/6 108/143/6
f 121/158/6 106/141/6 107/142/6 120/157/6
f 119/156/6 109/144/6 105/140/6 120/157/6
f 111/146/6 119/156/6 120/157/6 107/142/6
f 104/139/6 121/158/6 120/157/6 105/140/6
f 110/145/6 106/141/6 121/158/6 118/155/6
f 100/135/3 116/153/3 118/155/3 108/143/3
f 103/138/2 117/154/2 119/156/2 111/146/2
f 94/125/3 114/149/3 116/153/3 100/135/3
f 97/131/2 115/151/2 117/154/2 103/138/2
usemtl carpet
f 11/20/1 12/22/1 7/13/1 8/15/1
f 1/1/1 10/18/1 14/25/1 5/9/1
f 5/9/1 14/25/1 11/20/1 3/5/1
f 13/24/1 6/10/1 4/7/1 12/22/1
f 9/16/1 13/24/1 14/25/1 10/18/1
f 13/24/1 12/22/1 11/20/1 14/25/1
f 9/16/1 2/3/1 6/10/1 13/24/1
f 27/47/1 17/30/1 19/34/1 26/45/1
f 26/45/1 15/26/1 7/13/1 27/47/1
f 4/7/1 6/10/1 25/43/1 24/41/1
f 27/47/1 4/7/1 24/41/1 17/30/1
f 8/15/1 7/13/1 15/26/1 16/29/1
f 18/32/1 8/15/1 16/29/1 20/36/1
f 35/58/1 36/60/1 89/118/1 88/116/1
f 112/147/1 113/148/1 93/124/1 92/121/1
f 113/148/1 89/118/1 95/127/1 115/152/1
f 112/147/1 92/121/1 96/129/1 114/150/1
f 88/116/1 112/147/1 114/150/1 94/126/1
f 93/124/1 113/148/1 115/152/1 97/132/1
f 88/116/1 89/118/1 113/148/1 112/147/1
