# Blender 3.5.0
# www.blender.org
mtllib prototype_roomWall.mtl
o Cube
v -2.436636 0.000000 2.783401
v 2.608659 0.000000 2.783401
v -2.436636 0.000000 -2.783401
v 2.608659 0.000000 -2.783401
v 2.608659 0.000000 0.000000
v 0.625098 0.000000 -3.283401
v -0.625098 0.000000 -3.283401
v 0.625098 0.000000 2.783401
v -0.625098 0.000000 2.783401
v -0.625098 0.000000 -2.783401
v 0.625098 0.000000 -2.783401
v 0.625098 0.000000 -9.997567
v -0.625098 0.000000 -9.997567
v 5.108286 0.000000 -3.283401
v -2.380891 0.000000 -3.283401
v 5.108286 0.000000 -9.997567
v -2.380891 0.000000 -9.997567
v -2.436636 0.000000 2.783401
v -2.436636 0.000000 -2.783401
v -2.436636 0.000000 0.000000
v 5.108286 0.000000 -2.783401
v 5.108286 0.000000 0.000000
v 2.608659 0.000000 -9.997567
v 2.608659 0.000000 -3.283401
v -2.436636 2.152554 2.783401
v 2.608659 2.152554 2.783401
v -2.436636 2.152554 -2.783401
v 2.608659 2.152554 -2.783401
v 2.608659 2.152554 0.000000
v 0.625098 2.152554 -3.283401
v -0.625098 2.152554 -3.283401
v 0.625098 2.152554 2.783401
v -0.625098 2.152554 2.783401
v -0.625098 2.152554 -2.783401
v 0.625098 2.152554 -2.783401
v 0.625098 2.152554 -9.997567
v -0.625098 2.152554 -9.997567
v 5.108286 2.152554 -3.283401
v -2.380891 2.152554 -3.283401
v 5.108286 2.152554 -9.997567
v -2.380891 2.152554 -9.997567
v -2.436636 2.152554 2.783401
v -2.436636 2.152554 -2.783401
v -2.436636 2.152554 0.000000
v 5.108286 2.152554 -2.783401
v 5.108286 2.152554 0.000000
v 2.608659 2.152554 -9.997567
v 2.608659 2.152554 -3.283401
v -2.436636 3.980247 2.783401
v 2.608659 3.980247 2.783401
v -2.436636 3.980247 -2.783401
v 2.608659 3.980247 -2.783401
v 2.608659 3.980247 0.000000
v 0.625098 3.076868 -3.283401
v -0.625098 3.076868 -3.283401
v 0.625098 3.980247 2.783401
v -0.625098 3.980247 2.783401
v -0.625098 3.980247 -2.783401
v 0.625098 3.980247 -2.783401
v 0.625098 3.076868 -9.997567
v -0.625098 3.076868 -9.997567
v 5.108286 3.076868 -3.283401
v -2.380891 3.076868 -3.283401
v 5.108286 3.076868 -9.997567
v -2.380891 3.076868 -9.997567
v -2.436636 3.980247 2.783401
v -2.436636 3.980247 -2.783401
v -2.436636 3.980247 0.000000
v 2.608659 3.076868 -9.997567
v 2.608659 3.076868 -3.283401
v -2.436636 4.830529 2.783401
v 2.608659 4.830529 2.783401
v -2.436636 4.830529 -2.783401
v 2.608659 4.830529 -2.783401
v 2.608659 4.830529 0.000000
v 0.625098 4.830529 2.783401
v -0.625098 4.830529 2.783401
v -0.625098 4.830529 -2.783401
v 0.625098 4.830529 -2.783401
v -2.436636 4.830529 2.783401
v -2.436636 4.830529 -2.783401
v -2.436636 4.830529 0.000000
v -0.625098 4.830529 0.000000
v 0.625098 4.830529 0.000000
v 0.625098 2.152554 3.419302
v -0.625098 2.152554 3.419302
v 0.625098 4.078199 3.419302
v -0.625098 4.078199 3.419302
v 0.625098 2.152554 6.475472
v -0.625098 2.152554 6.475472
v 2.160360 2.152554 3.419302
v -2.160360 2.152554 3.419302
v 2.160360 2.152554 6.475472
v -2.160360 2.152554 6.475472
v 0.625098 4.078199 6.475472
v -0.625098 4.078199 6.475472
v 2.160360 4.078199 3.419302
v -2.160360 4.078199 3.419302
v 2.160360 4.078199 6.475472
v -2.160360 4.078199 6.475472
v 0.625098 4.831104 3.419302
v -0.625098 4.831104 3.419302
v 0.625098 4.831104 6.475472
v -0.625098 4.831104 6.475472
v 2.160360 4.831104 3.419302
v -2.160360 4.831104 3.419302
v 2.160360 4.831104 6.475472
v -2.160360 4.831104 6.475472
v 2.160360 2.152554 4.947388
v -2.160360 2.152554 4.947388
v 2.160360 4.078199 4.947388
v -2.160360 4.078199 4.947388
v 2.160360 4.831104 4.947388
v -2.160360 4.831104 4.947388
v -0.625098 4.831104 4.947388
v 0.625098 4.831104 4.947388
vn 1.0000 -0.0000 -0.0000
vn -1.0000 -0.0000 -0.0000
vn -0.0000 -0.0000 1.0000
vn -0.0000 -0.0000 -1.0000
vn -0.0000 -1.0000 -0.0000
vn -0.0000 -0.9883 0.1522
vt 0.000000 0.000000
vt 1.000000 0.000000
vt 0.000000 1.000000
vt 1.000000 1.000000
vt 1.000000 0.500000
vt 0.628271 1.000000
vt 0.371729 1.000000
vt 0.628271 0.000000
vt 0.371729 0.000000
vt 0.371729 1.000000
vt 0.628271 1.000000
vt 0.628271 1.000000
vt 0.371729 1.000000
vt 0.628271 1.000000
vt 0.371729 1.000000
vt 0.628271 1.000000
vt 0.371729 1.000000
vt 0.000000 0.000000
vt 0.000000 0.000000
vt 0.000000 0.000000
vt 1.000000 1.000000
vt 1.000000 0.500000
vt 0.628271 1.000000
vt 0.628271 1.000000
vt 0.000000 0.000000
vt 1.000000 0.000000
vt 0.000000 1.000000
vt 0.000000 0.000000
vt 1.000000 1.000000
vt 1.000000 0.500000
vt 0.000000 0.000000
vt 0.628271 1.000000
vt 0.371729 1.000000
vt 0.628271 0.000000
vt 0.371729 0.000000
vt 0.371729 1.000000
vt 0.628271 1.000000
vt 0.628271 1.000000
vt 0.371729 1.000000
vt 0.628271 1.000000
vt 0.371729 1.000000
vt 0.628271 1.000000
vt 0.371729 1.000000
vt 0.000000 0.000000
vt 0.000000 0.000000
vt 0.000000 0.000000
vt 1.000000 1.000000
vt 0.000000 0.000000
vt 1.000000 0.500000
vt 0.000000 0.000000
vt 0.628271 1.000000
vt 0.628271 1.000000
vt 0.000000 0.000000
vt 1.000000 0.000000
vt 0.000000 1.000000
vt 1.000000 1.000000
vt 1.000000 0.500000
vt 0.628271 1.000000
vt 0.371729 1.000000
vt 0.628271 0.000000
vt 0.371729 0.000000
vt 0.371729 1.000000
vt 0.628271 1.000000
vt 0.628271 1.000000
vt 0.371729 1.000000
vt 0.628271 1.000000
vt 0.371729 1.000000
vt 0.628271 1.000000
vt 0.371729 1.000000
vt 0.000000 0.000000
vt 0.000000 0.000000
vt 0.000000 0.000000
vt 0.628271 1.000000
vt 0.628271 1.000000
vt 0.000000 0.000000
vt 1.000000 0.000000
vt 0.000000 1.000000
vt 1.000000 1.000000
vt 1.000000 0.500000
vt 0.628271 0.000000
vt 0.371729 0.000000
vt 0.371729 1.000000
vt 0.628271 1.000000
vt 0.000000 0.000000
vt 0.000000 0.000000
vt 0.000000 0.000000
vt 0.371729 0.500000
vt 0.628271 0.500000
vt 0.628271 0.000000
vt 0.371729 0.000000
vt 0.628271 0.000000
vt 0.371729 0.000000
vt 0.628271 0.000000
vt 0.371729 0.000000
vt 0.628271 0.000000
vt 0.371729 0.000000
vt 0.628271 0.000000
vt 0.371729 0.000000
vt 0.628271 0.000000
vt 0.371729 0.000000
vt 0.628271 0.000000
vt 0.371729 0.000000
vt 0.628271 0.000000
vt 0.371729 0.000000
vt 0.628271 0.000000
vt 0.371729 0.000000
vt 0.628271 0.000000
vt 0.371729 0.000000
vt 0.628271 0.000000
vt 0.371729 0.000000
vt 0.628271 0.000000
vt 0.371729 0.000000
vt 0.628271 0.000000
vt 0.371729 0.000000
vt 0.628271 0.000000
vt 0.371729 0.000000
vt 0.628271 0.000000
vt 0.371729 0.000000
vt 0.371729 0.000000
vt 0.628271 0.000000
s 0
usemtl wall
f 63/67/1 39/41/1 41/43/1 65/69/1
f 5/5/2 2/2/2 26/26/2 29/30/2
f 3/3/3 10/10/3 34/36/3 27/27/3
f 22/22/4 5/5/4 29/30/4 46/49/4
f 24/24/4 48/52/4 38/40/4 14/14/4
f 10/10/1 7/7/1 31/33/1 34/36/1
f 11/11/3 4/4/3 28/29/3 35/37/3
f 23/23/3 16/16/3 40/42/3 47/51/3
f 7/7/4 15/15/4 39/41/4 31/33/4
f 13/13/3 12/12/3 36/38/3 37/39/3
f 24/24/4 6/6/4 30/32/4 48/52/4
f 17/17/3 13/13/3 37/39/3 41/43/3
f 6/6/2 11/11/2 35/37/2 30/32/2
f 2/2/4 8/8/4 32/34/4 26/26/4
f 18/18/1 20/20/1 44/46/1 42/44/1
f 8/8/4 9/9/4 33/35/4 32/34/4
f 4/4/1 24/24/1 48/52/1 28/29/1
f 20/20/1 19/19/1 43/45/1 44/46/1
f 14/14/2 21/21/2 45/47/2 38/40/2
f 5/5/2 29/30/2 28/29/2 4/4/2
f 9/9/4 1/1/4 25/25/4 33/35/4
f 21/21/2 22/22/2 46/49/2 45/47/2
f 12/12/3 23/23/3 47/51/3 36/38/3
f 29/30/2 26/26/2 50/54/2 53/57/2
f 42/44/1 44/46/1 68/72/1 66/70/1
f 37/39/3 36/38/3 60/64/3 61/65/3
f 31/33/5 30/32/5 35/37/5 34/36/5
f 44/46/1 43/45/1 67/71/1 68/72/1
f 35/37/3 59/63/3 58/62/3 34/36/3
f 36/38/3 47/51/3 69/73/3 60/64/3
f 26/26/4 32/34/4 56/60/4 50/54/4
f 47/51/3 40/42/3 64/68/3 69/73/3
f 48/52/4 70/74/4 62/66/4 38/40/4
f 33/35/4 25/25/4 49/53/4 57/61/4
f 48/52/4 30/32/4 54/58/4 70/74/4
f 31/33/4 39/41/4 63/67/4 55/59/4
f 27/27/3 34/36/3 58/62/3 51/55/3
f 29/30/2 53/57/2 52/56/2 28/29/2
f 41/43/3 37/39/3 61/65/3 65/69/3
f 35/37/3 28/29/3 52/56/3 59/63/3
f 50/54/4 56/60/4 76/80/4 72/76/4
f 57/61/4 49/53/4 71/75/4 77/81/4
f 51/55/3 58/62/3 78/82/3 73/77/3
f 53/57/2 75/79/2 74/78/2 52/56/2
f 59/63/3 52/56/3 74/78/3 79/83/3
f 53/57/2 50/54/2 72/76/2 75/79/2
f 66/70/1 68/72/1 82/86/1 80/84/1
f 59/63/3 79/83/3 78/82/3 58/62/3
f 68/72/1 67/71/1 81/85/1 82/86/1
f 31/33/4 55/59/4 54/58/4 30/32/4
f 56/60/4 57/61/4 77/81/4 76/80/4
f 15/15/1 17/17/1 41/43/1 39/41/1
f 60/64/5 54/58/5 55/59/5 61/65/5
f 69/73/5 70/74/5 54/58/5 60/64/5
f 70/74/5 69/73/5 64/68/5 62/66/5
f 64/68/2 40/42/2 38/40/2 62/66/2
f 16/16/2 14/14/2 38/40/2 40/42/2
f 63/67/5 65/69/5 61/65/5 55/59/5
f 46/50/5 29/31/5 28/28/5 45/48/5
f 48/52/5 38/40/5 45/48/5 28/29/5
f 83/87/5 82/86/5 81/85/5 73/77/5 78/82/5
f 84/88/5 83/87/5 78/82/5 79/83/5
f 75/79/5 72/76/5 76/80/5 84/88/5
f 76/80/5 77/81/5 83/87/5 84/88/5
f 71/75/5 80/84/5 82/86/5 83/87/5 77/81/5
f 74/78/5 75/79/5 84/88/5 79/83/5
f 57/61/6 56/60/6 87/91/6 88/92/6
f 56/60/2 32/34/2 85/89/2 87/91/2
f 33/35/1 57/61/1 88/92/1 86/90/1
f 93/97/4 89/93/4 95/99/4 99/103/4
f 92/96/3 86/90/3 88/92/3 98/102/3
f 110/114/1 92/96/1 98/102/1 112/116/1
f 89/93/4 90/94/4 96/100/4 95/99/4
f 85/89/3 91/95/3 97/101/3 87/91/3
f 90/94/4 94/98/4 100/104/4 96/100/4
f 109/113/2 93/97/2 99/103/2 111/115/2
f 98/102/3 88/92/3 102/106/3 106/110/3
f 88/92/3 87/91/3 101/105/3 102/106/3
f 99/103/4 95/99/4 103/107/4 107/111/4
f 112/116/1 98/102/1 106/110/1 114/118/1
f 95/99/4 96/100/4 104/108/4 103/107/4
f 96/100/4 100/104/4 108/112/4 104/108/4
f 87/91/3 97/101/3 105/109/3 101/105/3
f 111/115/2 99/103/2 107/111/2 113/117/2
f 113/117/5 116/120/5 101/105/5 105/109/5
f 116/120/5 103/107/5 104/108/5 115/119/5
f 114/118/5 106/110/5 102/106/5 115/119/5
f 108/112/5 114/118/5 115/119/5 104/108/5
f 101/105/5 116/120/5 115/119/5 102/106/5
f 107/111/5 103/107/5 116/120/5 113/117/5
f 97/101/2 111/115/2 113/117/2 105/109/2
f 100/104/1 112/116/1 114/118/1 108/112/1
f 91/95/2 109/113/2 111/115/2 97/101/2
f 94/98/1 110/114/1 112/116/1 100/104/1
