# Blender 3.5.0
# www.blender.org
mtllib push_box.mtl
o Cube
v 0.296815 0.296815 -0.984767
v 0.410179 0.938022 -0.410179
v 0.984767 0.296815 -0.296815
v 0.410179 -0.938022 -0.410179
v 0.296815 -0.296815 -0.984767
v 0.984767 -0.296815 -0.296815
v 0.984767 0.296815 0.296815
v 0.410179 0.938022 0.410179
v 0.296815 0.296815 0.984767
v 0.984767 -0.296815 0.296815
v 0.296815 -0.296815 0.984767
v 0.410179 -0.938022 0.410179
v -0.296815 0.296815 -0.984767
v -0.984767 0.296815 -0.296815
v -0.410179 0.938022 -0.410179
v -0.984767 -0.296815 -0.296815
v -0.296815 -0.296815 -0.984767
v -0.410179 -0.938022 -0.410179
v -0.984767 0.296815 0.296815
v -0.296815 0.296815 0.984767
v -0.410179 0.938022 0.410179
v -0.410179 -0.938022 0.410179
v -0.296815 -0.296815 0.984767
v -0.984767 -0.296815 0.296815
v -0.635004 -0.963883 -0.635004
v -0.635004 -0.963883 0.635004
v -0.963883 -0.635004 0.635004
v -0.963883 -0.635004 -0.635004
v 0.635004 -0.963883 -0.635004
v -0.635004 -0.635004 -0.963883
v 0.635004 -0.635004 -0.963883
v 0.963883 0.635004 -0.635004
v 0.963883 -0.635004 -0.635004
v 0.635004 0.635004 -0.963883
v -0.635004 -0.635004 0.963883
v -0.635004 0.635004 0.963883
v -0.963883 0.635004 0.635004
v 0.635004 0.635004 0.963883
v 0.635004 -0.635004 0.963883
v 0.963883 -0.635004 0.635004
v 0.963883 0.635004 0.635004
v -0.635004 0.635004 -0.963883
v -0.963883 0.635004 -0.635004
v 0.635004 0.963883 0.635004
v -0.635004 0.963883 0.635004
v 0.635004 0.963883 -0.635004
v 0.635004 -0.963883 0.635004
v -0.635004 0.963883 -0.635004
v -0.938022 -0.410179 0.410179
v -0.938022 -0.410179 -0.410179
v -0.410179 -0.410179 -0.938022
v 0.410179 -0.410179 -0.938022
v 0.938022 0.410179 -0.410179
v 0.938022 -0.410179 -0.410179
v 0.410179 0.410179 -0.938022
v -0.410179 -0.410179 0.938022
v -0.410179 0.410179 0.938022
v -0.938022 0.410179 0.410179
v 0.410179 0.410179 0.938022
v 0.410179 -0.410179 0.938022
v 0.938022 -0.410179 0.410179
v 0.938022 0.410179 0.410179
v -0.410179 0.410179 -0.938022
v -0.938022 0.410179 -0.410179
v -0.938022 -0.323887 0.323887
v -0.938022 -0.323887 -0.323887
v -0.323887 -0.323887 -0.938022
v 0.323887 -0.323887 -0.938022
v 0.938022 0.323887 -0.323887
v 0.938022 -0.323887 -0.323887
v 0.323887 0.323887 -0.938022
v -0.323887 -0.323887 0.938022
v -0.323887 0.323887 0.938022
v -0.938022 0.323887 0.323887
v 0.323887 0.323887 0.938022
v 0.323887 -0.323887 0.938022
v 0.938022 -0.323887 0.323887
v 0.938022 0.323887 0.323887
v -0.323887 0.323887 -0.938022
v -0.938022 0.323887 -0.323887
vn -0.0000 -1.0000 -0.0000
vn -1.0000 -0.0000 -0.0000
vn -0.0000 -0.0000 1.0000
vn -0.0000 1.0000 -0.0000
vn 1.0000 -0.0000 -0.0000
vn 0.5774 0.5774 -0.5774
vn 0.5774 -0.5774 -0.5774
vn 0.5774 0.5774 0.5774
vn 0.5774 -0.5774 0.5774
vn -0.5774 0.5774 -0.5774
vn -0.5774 -0.5774 -0.5774
vn -0.5774 0.5774 0.5774
vn -0.5774 -0.5774 0.5774
vn -0.7071 -0.7071 -0.0000
vn -0.0000 -0.7071 -0.7071
vn 0.7071 -0.0000 -0.7071
vn -0.7071 -0.0000 0.7071
vn 0.7071 -0.0000 0.7071
vn -0.7071 -0.0000 -0.7071
vn -0.0000 0.7071 0.7071
vn 0.7071 0.7071 -0.0000
vn -0.0000 -0.7071 0.7071
vn -0.7071 0.7071 -0.0000
vn -0.0000 0.7071 -0.7071
vn 0.7071 -0.7071 -0.0000
vn -0.0000 -0.0000 -1.0000
vn 0.1143 -0.9934 -0.0000
vn -0.9934 0.1143 -0.0000
vn -0.0000 -0.9934 0.1143
vn -0.0000 0.1143 -0.9934
vn 0.9934 -0.0000 0.1143
vn -0.1143 -0.0000 -0.9934
vn 0.1143 -0.0000 0.9934
vn -0.9934 -0.0000 -0.1143
vn -0.1143 -0.0000 0.9934
vn 0.9934 -0.0000 -0.1143
vn 0.1143 -0.0000 -0.9934
vn -0.9934 -0.0000 0.1143
vn -0.0000 0.9934 -0.1143
vn -0.0000 -0.1143 0.9934
vn -0.1143 0.9934 -0.0000
vn 0.9934 -0.1143 -0.0000
vn -0.0000 -0.9934 -0.1143
vn -0.0000 0.1143 0.9934
vn 0.1143 0.9934 -0.0000
vn -0.9934 -0.1143 -0.0000
vn -0.0000 0.9934 0.1143
vn -0.0000 -0.1143 -0.9934
vn -0.1143 -0.9934 -0.0000
vn 0.9934 0.1143 -0.0000
vn -0.5012 -0.8654 -0.0000
vn -0.0000 -0.8654 -0.5012
vn 0.5012 -0.0000 -0.8654
vn 0.8654 -0.0000 -0.5012
vn -0.8654 -0.0000 0.5012
vn -0.5012 -0.0000 0.8654
vn 0.8654 -0.0000 0.5012
vn 0.5012 -0.0000 0.8654
vn -0.8654 -0.0000 -0.5012
vn -0.5012 -0.0000 -0.8654
vn -0.0000 0.8654 0.5012
vn 0.5012 0.8654 -0.0000
vn -0.0000 -0.8654 0.5012
vn -0.5012 0.8654 -0.0000
vn -0.0000 0.8654 -0.5012
vn 0.5012 -0.8654 -0.0000
vt 0.544825 0.419825
vt 0.684968 0.559968
vt 0.544825 0.580175
vt 0.315032 0.559968
vt 0.455175 0.419825
vt 0.455175 0.580175
vt 0.544825 0.669825
vt 0.684968 0.690032
vt 0.544825 0.830175
vt 0.455175 0.669825
vt 0.455175 0.830175
vt 0.315032 0.690032
vt 0.544825 0.330175
vt 0.544825 0.169825
vt 0.815032 0.559968
vt 0.455175 0.169825
vt 0.455175 0.330175
vt 0.184968 0.559968
vt 0.544825 0.080175
vt 0.544825 0.919825
vt 0.815032 0.690032
vt 0.184968 0.690032
vt 0.455175 0.919825
vt 0.455175 0.080175
vt 0.375000 0.214808
vt 0.160192 0.535192
vt 0.160192 0.714808
vt 0.125000 0.714808
vt 0.410192 1.000000
vt 0.410192 0.035192
vt 0.125000 0.535192
vt 0.410192 0.214808
vt 0.339808 0.535192
vt 0.410192 0.250000
vt 0.160192 0.500000
vt 0.410192 0.285192
vt 0.339808 0.500000
vt 0.410192 0.464808
vt 0.589808 0.500000
vt 0.589808 0.535192
vt 0.375000 0.535192
vt 0.410192 0.535192
vt 0.660192 0.500000
vt 0.589808 0.464808
vt 0.160192 0.750000
vt 0.410192 0.964808
vt 0.589808 0.000000
vt 0.839808 0.750000
vt 0.589808 0.964808
vt 0.589808 1.000000
vt 0.875000 0.714808
vt 0.589808 0.035192
vt 0.589808 0.750000
vt 0.660192 0.750000
vt 0.589808 0.785192
vt 0.410192 0.750000
vt 0.339808 0.750000
vt 0.410192 0.785192
vt 0.410192 0.714808
vt 0.589808 0.714808
vt 0.839808 0.500000
vt 0.589808 0.285192
vt 0.589808 0.250000
vt 0.875000 0.535192
vt 0.589808 0.214808
vt 0.625000 0.714808
vt 0.660192 0.714808
vt 0.625000 0.035192
vt 0.839808 0.714808
vt 0.625000 0.464808
vt 0.660192 0.535192
vt 0.375000 0.714808
vt 0.339808 0.714808
vt 0.625000 0.285192
vt 0.839808 0.535192
vt 0.434968 0.059968
vt 0.434968 0.190032
vt 0.434968 0.309968
vt 0.434968 0.440032
vt 0.565032 0.559968
vt 0.434968 0.559968
vt 0.565032 0.440032
vt 0.434968 0.940032
vt 0.565032 0.940032
vt 0.565032 0.059968
vt 0.565032 0.809968
vt 0.434968 0.809968
vt 0.434968 0.690032
vt 0.565032 0.690032
vt 0.565032 0.309968
vt 0.565032 0.190032
vt 0.448649 0.073649
vt 0.448649 0.176351
vt 0.448649 0.323649
vt 0.448649 0.426351
vt 0.551351 0.573649
vt 0.448649 0.573649
vt 0.551351 0.426351
vt 0.448649 0.926351
vt 0.551351 0.926351
vt 0.551351 0.073649
vt 0.551351 0.823649
vt 0.448649 0.823649
vt 0.448649 0.676351
vt 0.551351 0.676351
vt 0.551351 0.323649
vt 0.551351 0.176351
s 0
usemtl box_rim
f 34/44/6 46/70/6 32/39/6
f 29/33/7 31/37/7 33/41/7
f 41/60/8 44/66/8 38/53/8
f 40/59/9 39/56/9 47/72/9
f 42/62/10 43/63/10 48/74/10
f 28/32/11 30/34/11 25/25/11
f 37/52/12 36/47/12 45/68/12
f 26/27/13 35/45/13 27/28/13
f 25/26/14 26/27/14 27/28/14 28/31/14
f 29/33/15 25/26/15 30/35/15 31/37/15
f 32/40/16 33/42/16 31/38/16 34/44/16
f 35/46/17 36/49/17 37/50/17 27/29/17
f 38/55/18 39/58/18 40/59/18 41/60/18
f 42/62/19 30/36/19 28/32/19 43/65/19
f 44/67/20 45/69/20 36/48/20 38/54/20
f 46/71/21 44/67/21 41/60/21 32/40/21
f 26/27/22 47/73/22 39/57/22 35/45/22
f 45/69/23 48/75/23 43/64/23 37/51/23
f 48/75/24 46/71/24 34/43/24 42/61/24
f 47/73/25 29/33/25 33/42/25 40/59/25
usemtl box_inner
f 18/18/1 4/4/1 12/12/1 22/22/1
f 24/24/2 19/19/2 14/14/2 16/16/2
f 11/11/3 9/9/3 20/20/3 23/23/3
f 2/2/4 15/15/4 21/21/4 8/8/4
f 6/6/5 3/3/5 7/7/5 10/10/5
f 17/17/26 13/13/26 1/1/26 5/5/26
f 18/18/27 22/22/27 26/27/27 25/26/27
f 49/76/28 50/77/28 28/32/28 27/30/28
f 4/4/29 18/18/29 25/26/29 29/33/29
f 51/78/30 52/79/30 31/38/30 30/36/30
f 53/80/31 54/81/31 33/42/31 32/40/31
f 52/79/32 55/82/32 34/44/32 31/38/32
f 56/83/33 57/84/33 36/49/33 35/46/33
f 58/85/34 49/76/34 27/30/34 37/52/34
f 59/86/35 60/87/35 39/58/35 38/55/35
f 61/88/36 62/89/36 41/60/36 40/59/36
f 63/90/37 51/78/37 30/36/37 42/62/37
f 50/77/38 64/91/38 43/65/38 28/32/38
f 8/8/39 21/21/39 45/69/39 44/67/39
f 57/84/40 59/86/40 38/55/40 36/49/40
f 2/2/41 8/8/41 44/67/41 46/71/41
f 62/89/42 53/80/42 32/40/42 41/60/42
f 22/22/43 12/12/43 47/73/43 26/27/43
f 60/87/44 56/83/44 35/46/44 39/58/44
f 21/21/45 15/15/45 48/75/45 45/69/45
f 64/91/46 58/85/46 37/52/46 43/65/46
f 15/15/47 2/2/47 46/71/47 48/75/47
f 55/82/48 63/90/48 42/62/48 34/44/48
f 12/12/49 4/4/49 29/33/49 47/73/49
f 54/81/50 61/88/50 40/59/50 33/42/50
f 24/24/51 16/16/51 66/93/51 65/92/51
f 17/17/52 5/5/52 68/95/52 67/94/52
f 3/3/53 6/6/53 70/97/53 69/96/53
f 5/5/54 1/1/54 71/98/54 68/95/54
f 23/23/55 20/20/55 73/100/55 72/99/55
f 19/19/56 24/24/56 65/92/56 74/101/56
f 9/9/57 11/11/57 76/103/57 75/102/57
f 10/10/58 7/7/58 78/105/58 77/104/58
f 13/13/59 17/17/59 67/94/59 79/106/59
f 16/16/60 14/14/60 80/107/60 66/93/60
f 20/20/61 9/9/61 75/102/61 73/100/61
f 7/7/62 3/3/62 69/96/62 78/105/62
f 11/11/63 23/23/63 72/99/63 76/103/63
f 14/14/64 19/19/64 74/101/64 80/107/64
f 1/1/65 13/13/65 79/106/65 71/98/65
f 6/6/66 10/10/66 77/104/66 70/97/66
usemtl box_blue
f 65/92/2 66/93/2 50/77/2 49/76/2
f 67/94/26 68/95/26 52/79/26 51/78/26
f 69/96/5 70/97/5 54/81/5 53/80/5
f 68/95/26 71/98/26 55/82/26 52/79/26
f 72/99/3 73/100/3 57/84/3 56/83/3
f 74/101/2 65/92/2 49/76/2 58/85/2
f 75/102/3 76/103/3 60/87/3 59/86/3
f 77/104/5 78/105/5 62/89/5 61/88/5
f 79/106/26 67/94/26 51/78/26 63/90/26
f 66/93/2 80/107/2 64/91/2 50/77/2
f 73/100/3 75/102/3 59/86/3 57/84/3
f 78/105/5 69/96/5 53/80/5 62/89/5
f 76/103/3 72/99/3 56/83/3 60/87/3
f 80/107/2 74/101/2 58/85/2 64/91/2
f 71/98/26 79/106/26 63/90/26 55/82/26
f 70/97/5 77/104/5 61/88/5 54/81/5
